<svg xmlns="http://www.w3.org/2000/svg" version="1.1" xmlns:xlink="http://www.w3.org/1999/xlink" xmlns:svgjs="http://svgjs.dev/svgjs" width="1000" height="1000" viewBox="0 0 1000 1000"><rect width="1000" height="1000" fill="#e6b17e"></rect><g transform="matrix(0.7,0,0,0.7,149.90044910179654,149.90044910179637)"><svg viewBox="0 0 334 334" data-background-color="#e6b17e" preserveAspectRatio="xMidYMid meet" height="1000" width="1000" xmlns="http://www.w3.org/2000/svg" xmlns:xlink="http://www.w3.org/1999/xlink"><g id="tight-bounds" transform="matrix(1,0,0,1,0.04749999999998522,0.04750000000001364)"><svg viewBox="0 0 333.90454557049503 333.90454557049503" height="333.90454557049503" width="333.90454557049503"><g><svg></svg></g><g><svg viewBox="0 0 333.90454557049503 333.90454557049503" height="333.90454557049503" width="333.90454557049503"><g><path d="M0 166.952c0-92.205 74.747-166.952 166.952-166.952 92.205 0 166.952 74.747 166.953 166.952 0 92.205-74.747 166.952-166.953 166.953-92.205 0-166.952-74.747-166.952-166.953zM166.952 325.009c87.292 0 158.056-70.764 158.057-158.057 0-87.292-70.764-158.056-158.057-158.056-87.292 0-158.056 70.764-158.056 158.056 0 87.292 70.764 158.056 158.056 158.057z" data-fill-palette-color="tertiary" fill="#000000" stroke="transparent"></path><ellipse rx="160.27418187383762" ry="160.27418187383762" cx="166.95227278524752" cy="166.95227278524752" fill="#000000" stroke="transparent" stroke-width="0" fill-opacity="1" data-fill-palette-color="tertiary"></ellipse></g><g transform="matrix(1,0,0,1,121.51086053835616,71.17305217166896)"><svg viewBox="0 0 90.88282449378273 191.55844122715712" height="191.55844122715712" width="90.88282449378273"><g><svg viewBox="0 0 90.88282449378273 191.55844122715712" height="191.55844122715712" width="90.88282449378273"><g><svg viewBox="0 0 176.48658417628943 371.98992384560205" height="191.55844122715712" width="90.88282449378273"><g transform="matrix(1,0,0,1,0,180.43148261844493)"><svg viewBox="0 0 176.48658417628943 191.55844122715712" height="191.55844122715712" width="176.48658417628943"><g id="textblocktransform"><svg viewBox="0 0 176.48658417628943 191.55844122715712" height="191.55844122715712" width="176.48658417628943" id="textblock"><g><svg viewBox="0 0 176.48658417628943 191.55844122715712" height="191.55844122715712" width="176.48658417628943"><g transform="matrix(1,0,0,1,0,0)"><svg width="176.48658417628943" viewBox="2.25 -37.0099983215332 35.45000076293945 38.46999740600586" height="191.55844122715712" data-palette-color="#e6b17e"><path d="M2.25-12.16L2.25-12.16Q2.34-24.17 2.34-30.08L2.34-30.08 2.34-30.37Q2.34-30.54 2.29-31.58 2.25-32.62 2.25-33.35L2.25-33.35Q2.25-36.28 2.73-36.67L2.73-36.67Q2.86-36.67 3.1-36.65 3.34-36.62 3.47-36.62L3.47-36.62Q7.57-36.82 12.99-36.82L12.99-36.82 16.31-36.82Q16.5-36.79 16.83-36.66 17.16-36.52 17.29-36.52L17.29-36.52Q17.31-35.33 17.4-32.4 17.48-29.47 17.52-27.32 17.55-25.17 17.53-23.1L17.53-23.1 17.53-13.57Q17.53-12.67 17.58-12.11 17.63-11.55 17.81-10.79 17.99-10.03 18.47-9.66 18.95-9.28 19.68-9.28L19.68-9.28Q20.7-9.28 21.34-10.14 21.97-11.01 21.97-12.16L21.97-12.16 21.97-21.09Q21.95-22.73 22.01-26.25 22.07-29.76 22.02-31.74L22.02-31.74 22.02-33.5Q22.02-33.76 21.97-34.31 21.92-34.86 21.92-35.16L21.92-35.16 21.92-36.33Q22-36.89 22.56-37.01L22.56-37.01Q27.25-37.01 36.62-36.91L36.62-36.91 36.62-36.52 37.7-36.52Q37.5-31.32 37.5-24.41L37.5-24.41 37.5-18.95Q37.5-17.85 37.45-15.58 37.4-13.31 37.4-12.21L37.4-12.21Q37.4-9.03 36.4-6.59 35.4-4.15 33.76-2.66 32.13-1.17 29.81-0.22 27.49 0.73 25.12 1.1 22.75 1.46 20.02 1.46L20.02 1.46Q17.38 1.46 15.08 1.14 12.77 0.81 10.4-0.13 8.03-1.07 6.32-2.54 4.61-4 3.49-6.47 2.37-8.94 2.25-12.16Z" opacity="1" transform="matrix(1,0,0,1,0,0)" fill="#e6b17e" class="wordmark-text-0" data-fill-palette-color="quaternary" id="text-0"></path></svg></g></svg></g></svg></g></svg></g><g transform="matrix(1,0,0,1,33.708937577671286,0)"><svg viewBox="0 0 109.06870902094686 135.20913204730257" height="135.20913204730257" width="109.06870902094686"><g><svg xmlns="http://www.w3.org/2000/svg" xmlns:xlink="http://www.w3.org/1999/xlink" version="1.1" x="0" y="0" viewBox="13.700000762939453 5 72.60000610351562 90" xml:space="preserve" height="135.20913204730257" width="109.06870902094686" class="icon-icon-0" data-fill-palette-color="quaternary" id="icon-0"><path class="" d="M50 5c-20 0-36.3 6.7-36.3 15v60c0 8.3 16.2 15 36.3 15s36.3-6.7 36.3-15V20C86.3 11.7 70 5 50 5zM50 12.5c17.6 0 27.5 5.4 28.7 7.7-0.4 2.6-10.5 7.3-28.7 7.3s-28.3-4.7-28.7-7.3C22.5 17.9 32.4 12.5 50 12.5zM78.8 79.8c-1.2 2.3-11.1 7.7-28.8 7.7s-27.6-5.4-28.8-7.7v-2.9c6.3 3.7 17.6 5.6 28.8 5.6s22.5-1.9 28.8-5.6V79.8zM78.8 70c0 2.5-10.1 7.5-28.8 7.5s-28.8-5-28.8-7.5V36.9c6.3 3.7 17.6 5.6 28.8 5.6s22.5-1.9 28.8-5.6V70zM78.8 30c0 2.5-10.1 7.5-28.8 7.5s-28.8-5-28.8-7.5v-3.1c6.3 3.7 17.6 5.6 28.8 5.6s22.5-1.9 28.8-5.6V30z" fill="#e6b17e" data-fill-palette-color="quaternary"></path><path class="" d="M44.5 57.8C44.8 56.9 45 56 45 55c0-4.1-3.4-7.5-7.5-7.5S30 50.9 30 55c0 1 0.2 1.9 0.5 2.8C27.4 58.6 25 61.5 25 65c0 4.1 3.4 7.5 7.5 7.5 1.9 0 3.7-0.7 5-1.9 1.3 1.2 3.1 1.9 5 1.9 4.1 0 7.5-3.4 7.5-7.5C50 61.5 47.6 58.6 44.5 57.8zM32.5 67.5c-1.4 0-2.5-1.1-2.5-2.5s1.1-2.5 2.5-2.5S35 63.6 35 65 33.9 67.5 32.5 67.5zM37.5 57.5c-1.4 0-2.5-1.1-2.5-2.5s1.1-2.5 2.5-2.5S40 53.6 40 55 38.9 57.5 37.5 57.5zM42.5 67.5c-1.4 0-2.5-1.1-2.5-2.5s1.1-2.5 2.5-2.5S45 63.6 45 65 43.9 67.5 42.5 67.5z" fill="#e6b17e" data-fill-palette-color="quaternary"></path><path class="" d="M63.8 72.5c4.1 0 7.5-3.4 7.5-7.5s-3.4-7.5-7.5-7.5-7.5 3.4-7.5 7.5S59.6 72.5 63.8 72.5zM63.8 62.5c1.4 0 2.5 1.1 2.5 2.5s-1.1 2.5-2.5 2.5-2.5-1.1-2.5-2.5S62.4 62.5 63.8 62.5z" fill="#e6b17e" data-fill-palette-color="quaternary"></path><path class="" d="M32.5 22.5h5c1.4 0 2.5-1.1 2.5-2.5s-1.1-2.5-2.5-2.5h-5c-1.4 0-2.5 1.1-2.5 2.5S31.1 22.5 32.5 22.5z" fill="#e6b17e" data-fill-palette-color="quaternary"></path></svg></g></svg></g><g></g></svg></g></svg></g></svg></g></svg></g><defs></defs></svg><rect width="333.90454557049503" height="333.90454557049503" fill="none" stroke="none" visibility="hidden"></rect></g></svg></g></svg>